<?xml version="1.0" encoding="utf-8"?>
<!-- Generator: Adobe Illustrator 16.0.0, SVG Export Plug-In . SVG Version: 6.00 Build 0)  -->
<!DOCTYPE svg PUBLIC "-//W3C//DTD SVG 1.1//EN" "http://www.w3.org/Graphics/SVG/1.1/DTD/svg11.dtd">
<svg version="1.1" id="Layer_1" xmlns="http://www.w3.org/2000/svg" xmlns:xlink="http://www.w3.org/1999/xlink" x="0px" y="0px"
	 width="1440px" height="841.89px" viewBox="0 0 1440 841.89" enable-background="new 0 0 1440 841.89" xml:space="preserve">
<g>
	<line fill="none" stroke="#9BCBED" x1="-15.962" y1="0" x2="40.276" y2="56.238"/>
	<line fill="none" stroke="#9BCBED" x1="40.276" y1="0" x2="96.514" y2="56.238"/>
	<line fill="none" stroke="#9BCBED" x1="96.514" y1="0" x2="152.752" y2="56.238"/>
	<line fill="none" stroke="#9BCBED" x1="152.752" y1="0" x2="208.991" y2="56.238"/>
	<line fill="none" stroke="#9BCBED" x1="208.991" y1="0" x2="265.229" y2="56.238"/>
	<line fill="none" stroke="#9BCBED" x1="321.466" y1="0" x2="265.229" y2="56.238"/>
	<line fill="none" stroke="#9BCBED" x1="377.705" y1="0" x2="321.466" y2="56.238"/>
	<line fill="none" stroke="#9BCBED" x1="433.943" y1="0" x2="377.705" y2="56.238"/>
	<line fill="none" stroke="#9BCBED" x1="490.181" y1="0" x2="433.943" y2="56.238"/>
	<line fill="none" stroke="#9BCBED" x1="546.419" y1="0" x2="490.181" y2="56.238"/>
	<line fill="none" stroke="#9BCBED" x1="546.419" y1="0" x2="602.657" y2="56.238"/>
	<line fill="none" stroke="#9BCBED" x1="602.657" y1="0" x2="658.895" y2="56.238"/>
	<line fill="none" stroke="#9BCBED" x1="715.133" y1="0" x2="658.895" y2="56.238"/>
	<line fill="none" stroke="#9BCBED" x1="715.133" y1="0" x2="771.371" y2="56.238"/>
	<line fill="none" stroke="#9BCBED" x1="771.371" y1="0" x2="827.609" y2="56.238"/>
	<line fill="none" stroke="#9BCBED" x1="827.609" y1="0" x2="883.848" y2="56.238"/>
	<line fill="none" stroke="#9BCBED" x1="883.848" y1="0" x2="940.086" y2="56.238"/>
	<line fill="none" stroke="#9BCBED" x1="940.086" y1="0" x2="996.323" y2="56.238"/>
	<line fill="none" stroke="#9BCBED" x1="996.323" y1="0" x2="1052.562" y2="56.238"/>
	<line fill="none" stroke="#9BCBED" x1="1052.562" y1="0" x2="1108.8" y2="56.238"/>
	<line fill="none" stroke="#9BCBED" x1="1108.8" y1="0" x2="1165.038" y2="56.238"/>
	<line fill="none" stroke="#9BCBED" x1="1221.276" y1="0" x2="1165.038" y2="56.238"/>
	<line fill="none" stroke="#9BCBED" x1="1277.515" y1="0" x2="1221.276" y2="56.238"/>
	<line fill="none" stroke="#9BCBED" x1="1333.752" y1="0" x2="1277.515" y2="56.238"/>
	<line fill="none" stroke="#9BCBED" x1="1333.752" y1="0" x2="1389.99" y2="56.238"/>
	<line fill="none" stroke="#9BCBED" x1="1389.99" y1="0" x2="1446.229" y2="56.238"/>
	<line fill="none" stroke="#9BCBED" x1="1446.229" y1="0" x2="1502.467" y2="56.238"/>
	<line fill="none" stroke="#9BCBED" x1="-15.962" y1="56.238" x2="40.276" y2="112.476"/>
	<line fill="none" stroke="#9BCBED" x1="96.514" y1="56.238" x2="40.276" y2="112.476"/>
	<line fill="none" stroke="#9BCBED" x1="152.752" y1="56.238" x2="96.514" y2="112.476"/>
	<line fill="none" stroke="#9BCBED" x1="152.752" y1="56.238" x2="208.991" y2="112.476"/>
	<line fill="none" stroke="#9BCBED" x1="265.229" y1="56.238" x2="208.991" y2="112.476"/>
	<line fill="none" stroke="#9BCBED" x1="321.466" y1="56.238" x2="265.229" y2="112.476"/>
	<line fill="none" stroke="#9BCBED" x1="377.705" y1="56.238" x2="321.466" y2="112.476"/>
	<line fill="none" stroke="#9BCBED" x1="377.705" y1="56.238" x2="433.943" y2="112.476"/>
	<line fill="none" stroke="#9BCBED" x1="433.943" y1="56.238" x2="490.181" y2="112.476"/>
	<line fill="none" stroke="#9BCBED" x1="546.419" y1="56.238" x2="490.181" y2="112.476"/>
	<line fill="none" stroke="#9BCBED" x1="602.657" y1="56.238" x2="546.419" y2="112.476"/>
	<line fill="none" stroke="#9BCBED" x1="658.895" y1="56.238" x2="602.657" y2="112.476"/>
	<line fill="none" stroke="#9BCBED" x1="658.895" y1="56.238" x2="715.133" y2="112.476"/>
	<line fill="none" stroke="#9BCBED" x1="771.371" y1="56.238" x2="715.133" y2="112.476"/>
	<line fill="none" stroke="#9BCBED" x1="771.371" y1="56.238" x2="827.609" y2="112.476"/>
	<line fill="none" stroke="#9BCBED" x1="883.848" y1="56.238" x2="827.609" y2="112.476"/>
	<line fill="none" stroke="#9BCBED" x1="940.086" y1="56.238" x2="883.848" y2="112.476"/>
	<line fill="none" stroke="#9BCBED" x1="940.086" y1="56.238" x2="996.323" y2="112.476"/>
	<line fill="none" stroke="#9BCBED" x1="996.323" y1="56.238" x2="1052.562" y2="112.476"/>
	<line fill="none" stroke="#9BCBED" x1="1108.8" y1="56.238" x2="1052.562" y2="112.476"/>
	<line fill="none" stroke="#9BCBED" x1="1108.8" y1="56.238" x2="1165.038" y2="112.476"/>
	<line fill="none" stroke="#9BCBED" x1="1221.276" y1="56.238" x2="1165.038" y2="112.476"/>
	<line fill="none" stroke="#9BCBED" x1="1221.276" y1="56.238" x2="1277.515" y2="112.476"/>
	<line fill="none" stroke="#9BCBED" x1="1277.515" y1="56.238" x2="1333.752" y2="112.476"/>
	<line fill="none" stroke="#9BCBED" x1="1333.752" y1="56.238" x2="1389.99" y2="112.476"/>
	<line fill="none" stroke="#9BCBED" x1="1389.99" y1="56.238" x2="1446.229" y2="112.476"/>
	<line fill="none" stroke="#9BCBED" x1="1446.229" y1="56.238" x2="1502.467" y2="112.476"/>
	<line fill="none" stroke="#9BCBED" x1="40.276" y1="112.476" x2="-15.962" y2="168.714"/>
	<line fill="none" stroke="#9BCBED" x1="40.276" y1="112.476" x2="96.514" y2="168.714"/>
	<line fill="none" stroke="#9BCBED" x1="152.752" y1="112.476" x2="96.514" y2="168.714"/>
	<line fill="none" stroke="#9BCBED" x1="152.752" y1="112.476" x2="208.991" y2="168.714"/>
	<line fill="none" stroke="#9BCBED" x1="208.991" y1="112.476" x2="265.229" y2="168.714"/>
	<line fill="none" stroke="#9BCBED" x1="265.229" y1="112.476" x2="321.466" y2="168.714"/>
	<line fill="none" stroke="#9BCBED" x1="321.466" y1="112.476" x2="377.705" y2="168.714"/>
	<line fill="none" stroke="#9BCBED" x1="433.943" y1="112.476" x2="377.705" y2="168.714"/>
	<line fill="none" stroke="#9BCBED" x1="490.181" y1="112.476" x2="433.943" y2="168.714"/>
	<line fill="none" stroke="#9BCBED" x1="490.181" y1="112.476" x2="546.419" y2="168.714"/>
	<line fill="none" stroke="#9BCBED" x1="546.419" y1="112.476" x2="602.657" y2="168.714"/>
	<line fill="none" stroke="#9BCBED" x1="658.895" y1="112.476" x2="602.657" y2="168.714"/>
	<line fill="none" stroke="#9BCBED" x1="715.133" y1="112.476" x2="658.895" y2="168.714"/>
	<line fill="none" stroke="#9BCBED" x1="771.371" y1="112.476" x2="715.133" y2="168.714"/>
	<line fill="none" stroke="#9BCBED" x1="771.371" y1="112.476" x2="827.609" y2="168.714"/>
	<line fill="none" stroke="#9BCBED" x1="827.609" y1="112.476" x2="883.848" y2="168.714"/>
	<line fill="none" stroke="#9BCBED" x1="940.086" y1="112.476" x2="883.848" y2="168.714"/>
	<line fill="none" stroke="#9BCBED" x1="940.086" y1="112.476" x2="996.323" y2="168.714"/>
	<line fill="none" stroke="#9BCBED" x1="996.323" y1="112.476" x2="1052.562" y2="168.714"/>
	<line fill="none" stroke="#9BCBED" x1="1052.562" y1="112.476" x2="1108.8" y2="168.714"/>
	<line fill="none" stroke="#9BCBED" x1="1165.038" y1="112.476" x2="1108.8" y2="168.714"/>
	<line fill="none" stroke="#9BCBED" x1="1165.038" y1="112.476" x2="1221.276" y2="168.714"/>
	<line fill="none" stroke="#9BCBED" x1="1277.515" y1="112.476" x2="1221.276" y2="168.714"/>
	<line fill="none" stroke="#9BCBED" x1="1277.515" y1="112.476" x2="1333.752" y2="168.714"/>
	<line fill="none" stroke="#9BCBED" x1="1333.752" y1="112.476" x2="1389.99" y2="168.714"/>
	<line fill="none" stroke="#9BCBED" x1="1389.99" y1="112.476" x2="1446.229" y2="168.714"/>
	<line fill="none" stroke="#9BCBED" x1="1502.467" y1="112.476" x2="1446.229" y2="168.714"/>
	<line fill="none" stroke="#9BCBED" x1="-15.962" y1="168.714" x2="40.276" y2="224.953"/>
	<line fill="none" stroke="#9BCBED" x1="96.514" y1="168.714" x2="40.276" y2="224.953"/>
	<line fill="none" stroke="#9BCBED" x1="152.752" y1="168.714" x2="96.514" y2="224.953"/>
	<line fill="none" stroke="#9BCBED" x1="208.991" y1="168.714" x2="152.752" y2="224.953"/>
	<line fill="none" stroke="#9BCBED" x1="208.991" y1="168.714" x2="265.229" y2="224.953"/>
	<line fill="none" stroke="#9BCBED" x1="265.229" y1="168.714" x2="321.466" y2="224.953"/>
	<line fill="none" stroke="#9BCBED" x1="377.705" y1="168.714" x2="321.466" y2="224.953"/>
	<line fill="none" stroke="#9BCBED" x1="433.943" y1="168.714" x2="377.705" y2="224.953"/>
	<line fill="none" stroke="#9BCBED" x1="433.943" y1="168.714" x2="490.181" y2="224.953"/>
	<line fill="none" stroke="#9BCBED" x1="546.419" y1="168.714" x2="490.181" y2="224.953"/>
	<line fill="none" stroke="#9BCBED" x1="602.657" y1="168.714" x2="546.419" y2="224.953"/>
	<line fill="none" stroke="#9BCBED" x1="658.895" y1="168.714" x2="602.657" y2="224.953"/>
	<line fill="none" stroke="#9BCBED" x1="658.895" y1="168.714" x2="715.133" y2="224.953"/>
	<line fill="none" stroke="#9BCBED" x1="771.371" y1="168.714" x2="715.133" y2="224.953"/>
	<line fill="none" stroke="#9BCBED" x1="771.371" y1="168.714" x2="827.609" y2="224.953"/>
	<line fill="none" stroke="#9BCBED" x1="827.609" y1="168.714" x2="883.848" y2="224.953"/>
	<line fill="none" stroke="#9BCBED" x1="883.848" y1="168.714" x2="940.086" y2="224.953"/>
	<line fill="none" stroke="#9BCBED" x1="940.086" y1="168.714" x2="996.323" y2="224.953"/>
	<line fill="none" stroke="#9BCBED" x1="996.323" y1="168.714" x2="1052.562" y2="224.953"/>
	<line fill="none" stroke="#9BCBED" x1="1052.562" y1="168.714" x2="1108.8" y2="224.953"/>
	<line fill="none" stroke="#9BCBED" x1="1108.8" y1="168.714" x2="1165.038" y2="224.953"/>
	<line fill="none" stroke="#9BCBED" x1="1165.038" y1="168.714" x2="1221.276" y2="224.953"/>
	<line fill="none" stroke="#9BCBED" x1="1221.276" y1="168.714" x2="1277.515" y2="224.953"/>
	<line fill="none" stroke="#9BCBED" x1="1277.515" y1="168.714" x2="1333.752" y2="224.953"/>
	<line fill="none" stroke="#9BCBED" x1="1389.99" y1="168.714" x2="1333.752" y2="224.953"/>
	<line fill="none" stroke="#9BCBED" x1="1446.229" y1="168.714" x2="1389.99" y2="224.953"/>
	<line fill="none" stroke="#9BCBED" x1="1446.229" y1="168.714" x2="1502.467" y2="224.953"/>
	<line fill="none" stroke="#9BCBED" x1="-15.962" y1="224.953" x2="40.276" y2="281.19"/>
	<line fill="none" stroke="#9BCBED" x1="40.276" y1="224.953" x2="96.514" y2="281.19"/>
	<line fill="none" stroke="#9BCBED" x1="152.752" y1="224.953" x2="96.514" y2="281.19"/>
	<line fill="none" stroke="#9BCBED" x1="152.752" y1="224.953" x2="208.991" y2="281.19"/>
	<line fill="none" stroke="#9BCBED" x1="208.991" y1="224.953" x2="265.229" y2="281.19"/>
	<line fill="none" stroke="#9BCBED" x1="265.229" y1="224.953" x2="321.466" y2="281.19"/>
	<line fill="none" stroke="#9BCBED" x1="321.466" y1="224.953" x2="377.705" y2="281.19"/>
	<line fill="none" stroke="#9BCBED" x1="433.943" y1="224.953" x2="377.705" y2="281.19"/>
	<line fill="none" stroke="#9BCBED" x1="433.943" y1="224.953" x2="490.181" y2="281.19"/>
	<line fill="none" stroke="#9BCBED" x1="490.181" y1="224.953" x2="546.419" y2="281.19"/>
	<line fill="none" stroke="#9BCBED" x1="602.657" y1="224.953" x2="546.419" y2="281.19"/>
	<line fill="none" stroke="#9BCBED" x1="602.657" y1="224.953" x2="658.895" y2="281.19"/>
	<line fill="none" stroke="#9BCBED" x1="715.133" y1="224.953" x2="658.895" y2="281.19"/>
	<line fill="none" stroke="#9BCBED" x1="715.133" y1="224.953" x2="771.371" y2="281.19"/>
	<line fill="none" stroke="#9BCBED" x1="827.609" y1="224.953" x2="771.371" y2="281.19"/>
	<line fill="none" stroke="#9BCBED" x1="883.848" y1="224.953" x2="827.609" y2="281.19"/>
	<line fill="none" stroke="#9BCBED" x1="883.848" y1="224.953" x2="940.086" y2="281.19"/>
	<line fill="none" stroke="#9BCBED" x1="996.323" y1="224.953" x2="940.086" y2="281.19"/>
	<line fill="none" stroke="#9BCBED" x1="1052.562" y1="224.953" x2="996.323" y2="281.19"/>
	<line fill="none" stroke="#9BCBED" x1="1052.562" y1="224.953" x2="1108.8" y2="281.19"/>
	<line fill="none" stroke="#9BCBED" x1="1108.8" y1="224.953" x2="1165.038" y2="281.19"/>
	<line fill="none" stroke="#9BCBED" x1="1165.038" y1="224.953" x2="1221.276" y2="281.19"/>
	<line fill="none" stroke="#9BCBED" x1="1277.515" y1="224.953" x2="1221.276" y2="281.19"/>
	<line fill="none" stroke="#9BCBED" x1="1277.515" y1="224.953" x2="1333.752" y2="281.19"/>
	<line fill="none" stroke="#9BCBED" x1="1389.99" y1="224.953" x2="1333.752" y2="281.19"/>
	<line fill="none" stroke="#9BCBED" x1="1389.99" y1="224.953" x2="1446.229" y2="281.19"/>
	<line fill="none" stroke="#9BCBED" x1="1446.229" y1="224.953" x2="1502.467" y2="281.19"/>
	<line fill="none" stroke="#9BCBED" x1="40.276" y1="281.19" x2="-15.962" y2="337.429"/>
	<line fill="none" stroke="#9BCBED" x1="40.276" y1="281.19" x2="96.514" y2="337.429"/>
	<line fill="none" stroke="#9BCBED" x1="96.514" y1="281.19" x2="152.752" y2="337.429"/>
	<line fill="none" stroke="#9BCBED" x1="152.752" y1="281.19" x2="208.991" y2="337.429"/>
	<line fill="none" stroke="#9BCBED" x1="265.229" y1="281.19" x2="208.991" y2="337.429"/>
	<line fill="none" stroke="#9BCBED" x1="321.466" y1="281.19" x2="265.229" y2="337.429"/>
	<line fill="none" stroke="#9BCBED" x1="321.466" y1="281.19" x2="377.705" y2="337.429"/>
	<line fill="none" stroke="#9BCBED" x1="433.943" y1="281.19" x2="377.705" y2="337.429"/>
	<line fill="none" stroke="#9BCBED" x1="433.943" y1="281.19" x2="490.181" y2="337.429"/>
	<line fill="none" stroke="#9BCBED" x1="490.181" y1="281.19" x2="546.419" y2="337.429"/>
	<line fill="none" stroke="#9BCBED" x1="546.419" y1="281.19" x2="602.657" y2="337.429"/>
	<line fill="none" stroke="#9BCBED" x1="602.657" y1="281.19" x2="658.895" y2="337.429"/>
	<line fill="none" stroke="#9BCBED" x1="658.895" y1="281.19" x2="715.133" y2="337.429"/>
	<line fill="none" stroke="#9BCBED" x1="715.133" y1="281.19" x2="771.371" y2="337.429"/>
	<line fill="none" stroke="#9BCBED" x1="771.371" y1="281.19" x2="827.609" y2="337.429"/>
	<line fill="none" stroke="#9BCBED" x1="883.848" y1="281.19" x2="827.609" y2="337.429"/>
	<line fill="none" stroke="#9BCBED" x1="883.848" y1="281.19" x2="940.086" y2="337.429"/>
	<line fill="none" stroke="#9BCBED" x1="940.086" y1="281.19" x2="996.323" y2="337.429"/>
	<line fill="none" stroke="#9BCBED" x1="996.323" y1="281.19" x2="1052.562" y2="337.429"/>
	<line fill="none" stroke="#9BCBED" x1="1052.562" y1="281.19" x2="1108.8" y2="337.429"/>
	<line fill="none" stroke="#9BCBED" x1="1108.8" y1="281.19" x2="1165.038" y2="337.429"/>
	<line fill="none" stroke="#9BCBED" x1="1221.276" y1="281.19" x2="1165.038" y2="337.429"/>
	<line fill="none" stroke="#9BCBED" x1="1221.276" y1="281.19" x2="1277.515" y2="337.429"/>
	<line fill="none" stroke="#9BCBED" x1="1277.515" y1="281.19" x2="1333.752" y2="337.429"/>
	<line fill="none" stroke="#9BCBED" x1="1389.99" y1="281.19" x2="1333.752" y2="337.429"/>
	<line fill="none" stroke="#9BCBED" x1="1446.229" y1="281.19" x2="1389.99" y2="337.429"/>
	<line fill="none" stroke="#9BCBED" x1="1502.467" y1="281.19" x2="1446.229" y2="337.429"/>
	<line fill="none" stroke="#9BCBED" x1="-15.962" y1="337.429" x2="40.276" y2="393.667"/>
	<line fill="none" stroke="#9BCBED" x1="40.276" y1="337.429" x2="96.514" y2="393.667"/>
	<line fill="none" stroke="#9BCBED" x1="152.752" y1="337.429" x2="96.514" y2="393.667"/>
	<line fill="none" stroke="#9BCBED" x1="152.752" y1="337.429" x2="208.991" y2="393.667"/>
	<line fill="none" stroke="#9BCBED" x1="208.991" y1="337.429" x2="265.229" y2="393.667"/>
	<line fill="none" stroke="#9BCBED" x1="321.466" y1="337.429" x2="265.229" y2="393.667"/>
	<line fill="none" stroke="#9BCBED" x1="377.705" y1="337.429" x2="321.466" y2="393.667"/>
	<line fill="none" stroke="#9BCBED" x1="433.943" y1="337.429" x2="377.705" y2="393.667"/>
	<line fill="none" stroke="#9BCBED" x1="490.181" y1="337.429" x2="433.943" y2="393.667"/>
	<line fill="none" stroke="#9BCBED" x1="546.419" y1="337.429" x2="490.181" y2="393.667"/>
	<line fill="none" stroke="#9BCBED" x1="546.419" y1="337.429" x2="602.657" y2="393.667"/>
	<line fill="none" stroke="#9BCBED" x1="602.657" y1="337.429" x2="658.895" y2="393.667"/>
	<line fill="none" stroke="#9BCBED" x1="715.133" y1="337.429" x2="658.895" y2="393.667"/>
	<line fill="none" stroke="#9BCBED" x1="715.133" y1="337.429" x2="771.371" y2="393.667"/>
	<line fill="none" stroke="#9BCBED" x1="771.371" y1="337.429" x2="827.609" y2="393.667"/>
	<line fill="none" stroke="#9BCBED" x1="827.609" y1="337.429" x2="883.848" y2="393.667"/>
	<line fill="none" stroke="#9BCBED" x1="883.848" y1="337.429" x2="940.086" y2="393.667"/>
	<line fill="none" stroke="#9BCBED" x1="940.086" y1="337.429" x2="996.323" y2="393.667"/>
	<line fill="none" stroke="#9BCBED" x1="1052.562" y1="337.429" x2="996.323" y2="393.667"/>
	<line fill="none" stroke="#9BCBED" x1="1052.562" y1="337.429" x2="1108.8" y2="393.667"/>
	<line fill="none" stroke="#9BCBED" x1="1165.038" y1="337.429" x2="1108.8" y2="393.667"/>
	<line fill="none" stroke="#9BCBED" x1="1165.038" y1="337.429" x2="1221.276" y2="393.667"/>
	<line fill="none" stroke="#9BCBED" x1="1277.515" y1="337.429" x2="1221.276" y2="393.667"/>
	<line fill="none" stroke="#9BCBED" x1="1277.515" y1="337.429" x2="1333.752" y2="393.667"/>
	<line fill="none" stroke="#9BCBED" x1="1333.752" y1="337.429" x2="1389.99" y2="393.667"/>
	<line fill="none" stroke="#9BCBED" x1="1389.99" y1="337.429" x2="1446.229" y2="393.667"/>
	<line fill="none" stroke="#9BCBED" x1="1502.467" y1="337.429" x2="1446.229" y2="393.667"/>
	<line fill="none" stroke="#9BCBED" x1="40.276" y1="393.667" x2="-15.962" y2="449.905"/>
	<line fill="none" stroke="#9BCBED" x1="40.276" y1="393.667" x2="96.514" y2="449.905"/>
	<line fill="none" stroke="#9BCBED" x1="152.752" y1="393.667" x2="96.514" y2="449.905"/>
	<line fill="none" stroke="#9BCBED" x1="208.991" y1="393.667" x2="152.752" y2="449.905"/>
	<line fill="none" stroke="#9BCBED" x1="208.991" y1="393.667" x2="265.229" y2="449.905"/>
	<line fill="none" stroke="#9BCBED" x1="321.466" y1="393.667" x2="265.229" y2="449.905"/>
	<line fill="none" stroke="#9BCBED" x1="321.466" y1="393.667" x2="377.705" y2="449.905"/>
	<line fill="none" stroke="#9BCBED" x1="377.705" y1="393.667" x2="433.943" y2="449.905"/>
	<line fill="none" stroke="#9BCBED" x1="490.181" y1="393.667" x2="433.943" y2="449.905"/>
	<line fill="none" stroke="#9BCBED" x1="490.181" y1="393.667" x2="546.419" y2="449.905"/>
	<line fill="none" stroke="#9BCBED" x1="546.419" y1="393.667" x2="602.657" y2="449.905"/>
	<line fill="none" stroke="#9BCBED" x1="602.657" y1="393.667" x2="658.895" y2="449.905"/>
	<line fill="none" stroke="#9BCBED" x1="715.133" y1="393.667" x2="658.895" y2="449.905"/>
	<line fill="none" stroke="#9BCBED" x1="771.371" y1="393.667" x2="715.133" y2="449.905"/>
	<line fill="none" stroke="#9BCBED" x1="827.609" y1="393.667" x2="771.371" y2="449.905"/>
	<line fill="none" stroke="#9BCBED" x1="827.609" y1="393.667" x2="883.848" y2="449.905"/>
	<line fill="none" stroke="#9BCBED" x1="883.848" y1="393.667" x2="940.086" y2="449.905"/>
	<line fill="none" stroke="#9BCBED" x1="996.323" y1="393.667" x2="940.086" y2="449.905"/>
	<line fill="none" stroke="#9BCBED" x1="996.323" y1="393.667" x2="1052.562" y2="449.905"/>
	<line fill="none" stroke="#9BCBED" x1="1052.562" y1="393.667" x2="1108.8" y2="449.905"/>
	<line fill="none" stroke="#9BCBED" x1="1108.8" y1="393.667" x2="1165.038" y2="449.905"/>
	<line fill="none" stroke="#9BCBED" x1="1165.038" y1="393.667" x2="1221.276" y2="449.905"/>
	<line fill="none" stroke="#9BCBED" x1="1221.276" y1="393.667" x2="1277.515" y2="449.905"/>
	<line fill="none" stroke="#9BCBED" x1="1277.515" y1="393.667" x2="1333.752" y2="449.905"/>
	<line fill="none" stroke="#9BCBED" x1="1333.752" y1="393.667" x2="1389.99" y2="449.905"/>
	<line fill="none" stroke="#9BCBED" x1="1389.99" y1="393.667" x2="1446.229" y2="449.905"/>
	<line fill="none" stroke="#9BCBED" x1="1446.229" y1="393.667" x2="1502.467" y2="449.905"/>
	<line fill="none" stroke="#9BCBED" x1="-15.962" y1="449.905" x2="40.276" y2="506.143"/>
	<line fill="none" stroke="#9BCBED" x1="96.514" y1="449.905" x2="40.276" y2="506.143"/>
	<line fill="none" stroke="#9BCBED" x1="96.514" y1="449.905" x2="152.752" y2="506.143"/>
	<line fill="none" stroke="#9BCBED" x1="152.752" y1="449.905" x2="208.991" y2="506.143"/>
	<line fill="none" stroke="#9BCBED" x1="208.991" y1="449.905" x2="265.229" y2="506.143"/>
	<line fill="none" stroke="#9BCBED" x1="321.466" y1="449.905" x2="265.229" y2="506.143"/>
	<line fill="none" stroke="#9BCBED" x1="321.466" y1="449.905" x2="377.705" y2="506.143"/>
	<line fill="none" stroke="#9BCBED" x1="377.705" y1="449.905" x2="433.943" y2="506.143"/>
	<line fill="none" stroke="#9BCBED" x1="433.943" y1="449.905" x2="490.181" y2="506.143"/>
	<line fill="none" stroke="#9BCBED" x1="546.419" y1="449.905" x2="490.181" y2="506.143"/>
	<line fill="none" stroke="#9BCBED" x1="546.419" y1="449.905" x2="602.657" y2="506.143"/>
	<line fill="none" stroke="#9BCBED" x1="602.657" y1="449.905" x2="658.895" y2="506.143"/>
	<line fill="none" stroke="#9BCBED" x1="715.133" y1="449.905" x2="658.895" y2="506.143"/>
	<line fill="none" stroke="#9BCBED" x1="771.371" y1="449.905" x2="715.133" y2="506.143"/>
	<line fill="none" stroke="#9BCBED" x1="827.609" y1="449.905" x2="771.371" y2="506.143"/>
	<line fill="none" stroke="#9BCBED" x1="827.609" y1="449.905" x2="883.848" y2="506.143"/>
	<line fill="none" stroke="#9BCBED" x1="940.086" y1="449.905" x2="883.848" y2="506.143"/>
	<line fill="none" stroke="#9BCBED" x1="940.086" y1="449.905" x2="996.323" y2="506.143"/>
	<line fill="none" stroke="#9BCBED" x1="996.323" y1="449.905" x2="1052.562" y2="506.143"/>
	<line fill="none" stroke="#9BCBED" x1="1108.8" y1="449.905" x2="1052.562" y2="506.143"/>
	<line fill="none" stroke="#9BCBED" x1="1165.038" y1="449.905" x2="1108.8" y2="506.143"/>
	<line fill="none" stroke="#9BCBED" x1="1165.038" y1="449.905" x2="1221.276" y2="506.143"/>
	<line fill="none" stroke="#9BCBED" x1="1221.276" y1="449.905" x2="1277.515" y2="506.143"/>
	<line fill="none" stroke="#9BCBED" x1="1333.752" y1="449.905" x2="1277.515" y2="506.143"/>
	<line fill="none" stroke="#9BCBED" x1="1333.752" y1="449.905" x2="1389.99" y2="506.143"/>
	<line fill="none" stroke="#9BCBED" x1="1446.229" y1="449.905" x2="1389.99" y2="506.143"/>
	<line fill="none" stroke="#9BCBED" x1="1446.229" y1="449.905" x2="1502.467" y2="506.143"/>
	<line fill="none" stroke="#9BCBED" x1="-15.962" y1="506.143" x2="40.276" y2="562.381"/>
	<line fill="none" stroke="#9BCBED" x1="40.276" y1="506.143" x2="96.514" y2="562.381"/>
	<line fill="none" stroke="#9BCBED" x1="96.514" y1="506.143" x2="152.752" y2="562.381"/>
	<line fill="none" stroke="#9BCBED" x1="152.752" y1="506.143" x2="208.991" y2="562.381"/>
	<line fill="none" stroke="#9BCBED" x1="208.991" y1="506.143" x2="265.229" y2="562.381"/>
	<line fill="none" stroke="#9BCBED" x1="265.229" y1="506.143" x2="321.466" y2="562.381"/>
	<line fill="none" stroke="#9BCBED" x1="321.466" y1="506.143" x2="377.705" y2="562.381"/>
	<line fill="none" stroke="#9BCBED" x1="377.705" y1="506.143" x2="433.943" y2="562.381"/>
	<line fill="none" stroke="#9BCBED" x1="490.181" y1="506.143" x2="433.943" y2="562.381"/>
	<line fill="none" stroke="#9BCBED" x1="490.181" y1="506.143" x2="546.419" y2="562.381"/>
	<line fill="none" stroke="#9BCBED" x1="602.657" y1="506.143" x2="546.419" y2="562.381"/>
	<line fill="none" stroke="#9BCBED" x1="602.657" y1="506.143" x2="658.895" y2="562.381"/>
	<line fill="none" stroke="#9BCBED" x1="658.895" y1="506.143" x2="715.133" y2="562.381"/>
	<line fill="none" stroke="#9BCBED" x1="771.371" y1="506.143" x2="715.133" y2="562.381"/>
	<line fill="none" stroke="#9BCBED" x1="771.371" y1="506.143" x2="827.609" y2="562.381"/>
	<line fill="none" stroke="#9BCBED" x1="883.848" y1="506.143" x2="827.609" y2="562.381"/>
	<line fill="none" stroke="#9BCBED" x1="883.848" y1="506.143" x2="940.086" y2="562.381"/>
	<line fill="none" stroke="#9BCBED" x1="940.086" y1="506.143" x2="996.323" y2="562.381"/>
	<line fill="none" stroke="#9BCBED" x1="996.323" y1="506.143" x2="1052.562" y2="562.381"/>
	<line fill="none" stroke="#9BCBED" x1="1108.8" y1="506.143" x2="1052.562" y2="562.381"/>
	<line fill="none" stroke="#9BCBED" x1="1108.8" y1="506.143" x2="1165.038" y2="562.381"/>
	<line fill="none" stroke="#9BCBED" x1="1221.276" y1="506.143" x2="1165.038" y2="562.381"/>
	<line fill="none" stroke="#9BCBED" x1="1221.276" y1="506.143" x2="1277.515" y2="562.381"/>
	<line fill="none" stroke="#9BCBED" x1="1277.515" y1="506.143" x2="1333.752" y2="562.381"/>
	<line fill="none" stroke="#9BCBED" x1="1333.752" y1="506.143" x2="1389.99" y2="562.381"/>
	<line fill="none" stroke="#9BCBED" x1="1446.229" y1="506.143" x2="1389.99" y2="562.381"/>
	<line fill="none" stroke="#9BCBED" x1="1446.229" y1="506.143" x2="1502.467" y2="562.381"/>
	<line fill="none" stroke="#9BCBED" x1="40.276" y1="562.381" x2="-15.962" y2="618.619"/>
	<line fill="none" stroke="#9BCBED" x1="96.514" y1="562.381" x2="40.276" y2="618.619"/>
	<line fill="none" stroke="#9BCBED" x1="96.514" y1="562.381" x2="152.752" y2="618.619"/>
	<line fill="none" stroke="#9BCBED" x1="152.752" y1="562.381" x2="208.991" y2="618.619"/>
	<line fill="none" stroke="#9BCBED" x1="265.229" y1="562.381" x2="208.991" y2="618.619"/>
	<line fill="none" stroke="#9BCBED" x1="265.229" y1="562.381" x2="321.466" y2="618.619"/>
	<line fill="none" stroke="#9BCBED" x1="321.466" y1="562.381" x2="377.705" y2="618.619"/>
	<line fill="none" stroke="#9BCBED" x1="377.705" y1="562.381" x2="433.943" y2="618.619"/>
	<line fill="none" stroke="#9BCBED" x1="490.181" y1="562.381" x2="433.943" y2="618.619"/>
	<line fill="none" stroke="#9BCBED" x1="546.419" y1="562.381" x2="490.181" y2="618.619"/>
	<line fill="none" stroke="#9BCBED" x1="602.657" y1="562.381" x2="546.419" y2="618.619"/>
	<line fill="none" stroke="#9BCBED" x1="602.657" y1="562.381" x2="658.895" y2="618.619"/>
	<line fill="none" stroke="#9BCBED" x1="658.895" y1="562.381" x2="715.133" y2="618.619"/>
	<line fill="none" stroke="#9BCBED" x1="715.133" y1="562.381" x2="771.371" y2="618.619"/>
	<line fill="none" stroke="#9BCBED" x1="771.371" y1="562.381" x2="827.609" y2="618.619"/>
	<line fill="none" stroke="#9BCBED" x1="827.609" y1="562.381" x2="883.848" y2="618.619"/>
	<line fill="none" stroke="#9BCBED" x1="940.086" y1="562.381" x2="883.848" y2="618.619"/>
	<line fill="none" stroke="#9BCBED" x1="940.086" y1="562.381" x2="996.323" y2="618.619"/>
	<line fill="none" stroke="#9BCBED" x1="1052.562" y1="562.381" x2="996.323" y2="618.619"/>
	<line fill="none" stroke="#9BCBED" x1="1108.8" y1="562.381" x2="1052.562" y2="618.619"/>
	<line fill="none" stroke="#9BCBED" x1="1108.8" y1="562.381" x2="1165.038" y2="618.619"/>
	<line fill="none" stroke="#9BCBED" x1="1221.276" y1="562.381" x2="1165.038" y2="618.619"/>
	<line fill="none" stroke="#9BCBED" x1="1277.515" y1="562.381" x2="1221.276" y2="618.619"/>
	<line fill="none" stroke="#9BCBED" x1="1333.752" y1="562.381" x2="1277.515" y2="618.619"/>
	<line fill="none" stroke="#9BCBED" x1="1389.99" y1="562.381" x2="1333.752" y2="618.619"/>
	<line fill="none" stroke="#9BCBED" x1="1389.99" y1="562.381" x2="1446.229" y2="618.619"/>
	<line fill="none" stroke="#9BCBED" x1="1446.229" y1="562.381" x2="1502.467" y2="618.619"/>
	<line fill="none" stroke="#9BCBED" x1="-15.962" y1="618.619" x2="40.276" y2="674.856"/>
	<line fill="none" stroke="#9BCBED" x1="40.276" y1="618.619" x2="96.514" y2="674.856"/>
	<line fill="none" stroke="#9BCBED" x1="96.514" y1="618.619" x2="152.752" y2="674.856"/>
	<line fill="none" stroke="#9BCBED" x1="152.752" y1="618.619" x2="208.991" y2="674.856"/>
	<line fill="none" stroke="#9BCBED" x1="208.991" y1="618.619" x2="265.229" y2="674.856"/>
	<line fill="none" stroke="#9BCBED" x1="321.466" y1="618.619" x2="265.229" y2="674.856"/>
	<line fill="none" stroke="#9BCBED" x1="321.466" y1="618.619" x2="377.705" y2="674.856"/>
	<line fill="none" stroke="#9BCBED" x1="433.943" y1="618.619" x2="377.705" y2="674.856"/>
	<line fill="none" stroke="#9BCBED" x1="490.181" y1="618.619" x2="433.943" y2="674.856"/>
	<line fill="none" stroke="#9BCBED" x1="490.181" y1="618.619" x2="546.419" y2="674.856"/>
	<line fill="none" stroke="#9BCBED" x1="546.419" y1="618.619" x2="602.657" y2="674.856"/>
	<line fill="none" stroke="#9BCBED" x1="658.895" y1="618.619" x2="602.657" y2="674.856"/>
	<line fill="none" stroke="#9BCBED" x1="658.895" y1="618.619" x2="715.133" y2="674.856"/>
	<line fill="none" stroke="#9BCBED" x1="715.133" y1="618.619" x2="771.371" y2="674.856"/>
	<line fill="none" stroke="#9BCBED" x1="771.371" y1="618.619" x2="827.609" y2="674.856"/>
	<line fill="none" stroke="#9BCBED" x1="827.609" y1="618.619" x2="883.848" y2="674.856"/>
	<line fill="none" stroke="#9BCBED" x1="940.086" y1="618.619" x2="883.848" y2="674.856"/>
	<line fill="none" stroke="#9BCBED" x1="996.323" y1="618.619" x2="940.086" y2="674.856"/>
	<line fill="none" stroke="#9BCBED" x1="996.323" y1="618.619" x2="1052.562" y2="674.856"/>
	<line fill="none" stroke="#9BCBED" x1="1108.8" y1="618.619" x2="1052.562" y2="674.856"/>
	<line fill="none" stroke="#9BCBED" x1="1108.8" y1="618.619" x2="1165.038" y2="674.856"/>
	<line fill="none" stroke="#9BCBED" x1="1165.038" y1="618.619" x2="1221.276" y2="674.856"/>
	<line fill="none" stroke="#9BCBED" x1="1221.276" y1="618.619" x2="1277.515" y2="674.856"/>
	<line fill="none" stroke="#9BCBED" x1="1277.515" y1="618.619" x2="1333.752" y2="674.856"/>
	<line fill="none" stroke="#9BCBED" x1="1389.99" y1="618.619" x2="1333.752" y2="674.856"/>
	<line fill="none" stroke="#9BCBED" x1="1446.229" y1="618.619" x2="1389.99" y2="674.856"/>
	<line fill="none" stroke="#9BCBED" x1="1502.467" y1="618.619" x2="1446.229" y2="674.856"/>
	<line fill="none" stroke="#9BCBED" x1="-15.962" y1="674.856" x2="40.276" y2="731.095"/>
	<line fill="none" stroke="#9BCBED" x1="96.514" y1="674.856" x2="40.276" y2="731.095"/>
	<line fill="none" stroke="#9BCBED" x1="152.752" y1="674.856" x2="96.514" y2="731.095"/>
	<line fill="none" stroke="#9BCBED" x1="152.752" y1="674.856" x2="208.991" y2="731.095"/>
	<line fill="none" stroke="#9BCBED" x1="208.991" y1="674.856" x2="265.229" y2="731.095"/>
	<line fill="none" stroke="#9BCBED" x1="265.229" y1="674.856" x2="321.466" y2="731.095"/>
	<line fill="none" stroke="#9BCBED" x1="321.466" y1="674.856" x2="377.705" y2="731.095"/>
	<line fill="none" stroke="#9BCBED" x1="433.943" y1="674.856" x2="377.705" y2="731.095"/>
	<line fill="none" stroke="#9BCBED" x1="433.943" y1="674.856" x2="490.181" y2="731.095"/>
	<line fill="none" stroke="#9BCBED" x1="490.181" y1="674.856" x2="546.419" y2="731.095"/>
	<line fill="none" stroke="#9BCBED" x1="546.419" y1="674.856" x2="602.657" y2="731.095"/>
	<line fill="none" stroke="#9BCBED" x1="602.657" y1="674.856" x2="658.895" y2="731.095"/>
	<line fill="none" stroke="#9BCBED" x1="658.895" y1="674.856" x2="715.133" y2="731.095"/>
	<line fill="none" stroke="#9BCBED" x1="715.133" y1="674.856" x2="771.371" y2="731.095"/>
	<line fill="none" stroke="#9BCBED" x1="827.609" y1="674.856" x2="771.371" y2="731.095"/>
	<line fill="none" stroke="#9BCBED" x1="827.609" y1="674.856" x2="883.848" y2="731.095"/>
	<line fill="none" stroke="#9BCBED" x1="883.848" y1="674.856" x2="940.086" y2="731.095"/>
	<line fill="none" stroke="#9BCBED" x1="996.323" y1="674.856" x2="940.086" y2="731.095"/>
	<line fill="none" stroke="#9BCBED" x1="1052.562" y1="674.856" x2="996.323" y2="731.095"/>
	<line fill="none" stroke="#9BCBED" x1="1052.562" y1="674.856" x2="1108.8" y2="731.095"/>
	<line fill="none" stroke="#9BCBED" x1="1108.8" y1="674.856" x2="1165.038" y2="731.095"/>
	<line fill="none" stroke="#9BCBED" x1="1165.038" y1="674.856" x2="1221.276" y2="731.095"/>
	<line fill="none" stroke="#9BCBED" x1="1221.276" y1="674.856" x2="1277.515" y2="731.095"/>
	<line fill="none" stroke="#9BCBED" x1="1333.752" y1="674.856" x2="1277.515" y2="731.095"/>
	<line fill="none" stroke="#9BCBED" x1="1333.752" y1="674.856" x2="1389.99" y2="731.095"/>
	<line fill="none" stroke="#9BCBED" x1="1389.99" y1="674.856" x2="1446.229" y2="731.095"/>
	<line fill="none" stroke="#9BCBED" x1="1502.467" y1="674.856" x2="1446.229" y2="731.095"/>
	<line fill="none" stroke="#9BCBED" x1="-15.962" y1="731.095" x2="40.276" y2="787.333"/>
	<line fill="none" stroke="#9BCBED" x1="40.276" y1="731.095" x2="96.514" y2="787.333"/>
	<line fill="none" stroke="#9BCBED" x1="96.514" y1="731.095" x2="152.752" y2="787.333"/>
	<line fill="none" stroke="#9BCBED" x1="208.991" y1="731.095" x2="152.752" y2="787.333"/>
	<line fill="none" stroke="#9BCBED" x1="208.991" y1="731.095" x2="265.229" y2="787.333"/>
	<line fill="none" stroke="#9BCBED" x1="265.229" y1="731.095" x2="321.466" y2="787.333"/>
	<line fill="none" stroke="#9BCBED" x1="377.705" y1="731.095" x2="321.466" y2="787.333"/>
	<line fill="none" stroke="#9BCBED" x1="377.705" y1="731.095" x2="433.943" y2="787.333"/>
	<line fill="none" stroke="#9BCBED" x1="490.181" y1="731.095" x2="433.943" y2="787.333"/>
	<line fill="none" stroke="#9BCBED" x1="490.181" y1="731.095" x2="546.419" y2="787.333"/>
	<line fill="none" stroke="#9BCBED" x1="546.419" y1="731.095" x2="602.657" y2="787.333"/>
	<line fill="none" stroke="#9BCBED" x1="602.657" y1="731.095" x2="658.895" y2="787.333"/>
	<line fill="none" stroke="#9BCBED" x1="715.133" y1="731.095" x2="658.895" y2="787.333"/>
	<line fill="none" stroke="#9BCBED" x1="715.133" y1="731.095" x2="771.371" y2="787.333"/>
	<line fill="none" stroke="#9BCBED" x1="771.371" y1="731.095" x2="827.609" y2="787.333"/>
	<line fill="none" stroke="#9BCBED" x1="827.609" y1="731.095" x2="883.848" y2="787.333"/>
	<line fill="none" stroke="#9BCBED" x1="940.086" y1="731.095" x2="883.848" y2="787.333"/>
	<line fill="none" stroke="#9BCBED" x1="940.086" y1="731.095" x2="996.323" y2="787.333"/>
	<line fill="none" stroke="#9BCBED" x1="996.323" y1="731.095" x2="1052.562" y2="787.333"/>
	<line fill="none" stroke="#9BCBED" x1="1108.8" y1="731.095" x2="1052.562" y2="787.333"/>
	<line fill="none" stroke="#9BCBED" x1="1165.038" y1="731.095" x2="1108.8" y2="787.333"/>
	<line fill="none" stroke="#9BCBED" x1="1165.038" y1="731.095" x2="1221.276" y2="787.333"/>
	<line fill="none" stroke="#9BCBED" x1="1221.276" y1="731.095" x2="1277.515" y2="787.333"/>
	<line fill="none" stroke="#9BCBED" x1="1333.752" y1="731.095" x2="1277.515" y2="787.333"/>
	<line fill="none" stroke="#9BCBED" x1="1389.99" y1="731.095" x2="1333.752" y2="787.333"/>
	<line fill="none" stroke="#9BCBED" x1="1389.99" y1="731.095" x2="1446.229" y2="787.333"/>
	<line fill="none" stroke="#9BCBED" x1="1446.229" y1="731.095" x2="1502.467" y2="787.333"/>
	<line fill="none" stroke="#9BCBED" x1="-15.962" y1="787.333" x2="40.276" y2="843.571"/>
	<line fill="none" stroke="#9BCBED" x1="40.276" y1="787.333" x2="96.514" y2="843.571"/>
	<line fill="none" stroke="#9BCBED" x1="152.752" y1="787.333" x2="96.514" y2="843.571"/>
	<line fill="none" stroke="#9BCBED" x1="208.991" y1="787.333" x2="152.752" y2="843.571"/>
	<line fill="none" stroke="#9BCBED" x1="208.991" y1="787.333" x2="265.229" y2="843.571"/>
	<line fill="none" stroke="#9BCBED" x1="265.229" y1="787.333" x2="321.466" y2="843.571"/>
	<line fill="none" stroke="#9BCBED" x1="321.466" y1="787.333" x2="377.705" y2="843.571"/>
	<line fill="none" stroke="#9BCBED" x1="377.705" y1="787.333" x2="433.943" y2="843.571"/>
	<line fill="none" stroke="#9BCBED" x1="490.181" y1="787.333" x2="433.943" y2="843.571"/>
	<line fill="none" stroke="#9BCBED" x1="546.419" y1="787.333" x2="490.181" y2="843.571"/>
	<line fill="none" stroke="#9BCBED" x1="546.419" y1="787.333" x2="602.657" y2="843.571"/>
	<line fill="none" stroke="#9BCBED" x1="658.895" y1="787.333" x2="602.657" y2="843.571"/>
	<line fill="none" stroke="#9BCBED" x1="715.133" y1="787.333" x2="658.895" y2="843.571"/>
	<line fill="none" stroke="#9BCBED" x1="715.133" y1="787.333" x2="771.371" y2="843.571"/>
	<line fill="none" stroke="#9BCBED" x1="771.371" y1="787.333" x2="827.609" y2="843.571"/>
	<line fill="none" stroke="#9BCBED" x1="827.609" y1="787.333" x2="883.848" y2="843.571"/>
	<line fill="none" stroke="#9BCBED" x1="883.848" y1="787.333" x2="940.086" y2="843.571"/>
	<line fill="none" stroke="#9BCBED" x1="940.086" y1="787.333" x2="996.323" y2="843.571"/>
	<line fill="none" stroke="#9BCBED" x1="996.323" y1="787.333" x2="1052.562" y2="843.571"/>
	<line fill="none" stroke="#9BCBED" x1="1108.8" y1="787.333" x2="1052.562" y2="843.571"/>
	<line fill="none" stroke="#9BCBED" x1="1165.038" y1="787.333" x2="1108.8" y2="843.571"/>
	<line fill="none" stroke="#9BCBED" x1="1165.038" y1="787.333" x2="1221.276" y2="843.571"/>
	<line fill="none" stroke="#9BCBED" x1="1277.515" y1="787.333" x2="1221.276" y2="843.571"/>
	<line fill="none" stroke="#9BCBED" x1="1277.515" y1="787.333" x2="1333.752" y2="843.571"/>
	<line fill="none" stroke="#9BCBED" x1="1333.752" y1="787.333" x2="1389.99" y2="843.571"/>
	<line fill="none" stroke="#9BCBED" x1="1446.229" y1="787.333" x2="1389.99" y2="843.571"/>
	<line fill="none" stroke="#9BCBED" x1="1446.229" y1="787.333" x2="1502.467" y2="843.571"/>
</g>
</svg>
