<svg width="220" height="56" viewBox="0 0 220 56" fill="none" xmlns="http://www.w3.org/2000/svg">
<g clip-path="url(#clip0_207_9)">
<path d="M48.7893 56H29.5L17 25L26 9L48.7893 56Z" fill="url(#paint0_linear_207_9)"/>
<path d="M31.5 0L26 9L34 25.5L49 0H31.5Z" fill="url(#paint1_linear_207_9)"/>
<path d="M17 0.5H0V56.5H17V0.5Z" fill="url(#paint2_linear_207_9)"/>
<path d="M51 39.0263C57.0908 39.0263 62.0742 34.0693 62.0742 28.018C62.0742 21.914 57.0908 16.9306 51.0132 16.9306C44.9355 16.9306 39.9653 21.914 39.9653 28.018C39.9653 34.0693 44.9355 39.0263 51 39.0263ZM51 34.7021C47.2954 34.7021 44.2764 31.6831 44.2764 27.9917C44.2764 24.2739 47.2954 21.2417 51 21.2417C54.7178 21.2417 57.75 24.2739 57.75 27.9917C57.75 31.6831 54.7178 34.7021 51 34.7021Z" fill="#191919"/>
<path d="M84.2627 16.9306L74.0982 30.9711L63.9204 16.9306H63.6831V38.7099H67.9546V29.455L74.085 38.3539H74.1114L80.2285 29.455V38.7099H84.5V16.9306H84.2627Z" fill="#191919"/>
<path d="M87.5 38.7099H91.7715V16.9306H87.5V38.7099Z" fill="#191919"/>
<path d="M107.715 16.9306V29.3496L95.125 17.102L94.5 16.4999V38.7099H99.1856V26.871L111.802 39.145H112V16.9306H107.715Z" fill="#191919"/>
<path d="M127.314 21.6371V17.102L114.5 16.9306V38.7099H118.771V30.1801H125.5V25.4999H118.771V21.6371H127.314Z" fill="#191919"/>
<path d="M138.987 38.7218C145.078 38.7218 150.061 33.7648 150.061 27.7135C150.061 21.6095 145.078 16.6261 139 16.6261C132.922 16.6261 127.952 21.6095 127.952 27.7135C127.952 33.7648 132.922 38.7218 138.987 38.7218ZM138.987 34.3976C135.282 34.3976 132.263 31.3786 132.263 27.6872C132.263 23.9694 135.282 20.9372 138.987 20.9372C142.705 20.9372 145.737 23.9694 145.737 27.6872C145.737 31.3786 142.705 34.3976 138.987 34.3976Z" fill="#191919"/>
<path d="M163.8 16.9306H149.061V21.1625H154.295V38.5H158.58V21.1625H163.8V16.9306Z" fill="#191919"/>
<path d="M189 38.7099L181.5 27.6872L188.161 16.9306H182.5L177.258 26.1196V16.9306H173V38.7099H177.258V29.5L183.23 38.7099H189Z" fill="#191919"/>
<path d="M87.5 38.7099H91.7715V16.9306H87.5V38.7099Z" fill="#191919"/>
<path d="M166 38.7099H170.271V16.9306H166V38.7099Z" fill="#191919"/>
<path d="M189.5 25L189 29H198L194.5 47.5C193.833 48.1667 192.1 49.6 190.5 50C188.9 50.4 186.167 48.8333 185 48L182.5 51.5L185 53C185.833 53.5 188.5 54.4 192.5 54C196.5 53.6 199.167 49.1667 200 47L203.5 29H204.5L203 37.5C202.479 39.9386 201.855 42.728 202.021 44.0614C202.021 45 203.7 47.2 206.5 48C209.3 48.8 213.667 48 215.5 47.5V42.5C208.5 44 208 42.5 208 40.5L210 29H219L220 24.5H211L212 18L206 19L205 25H189.5Z" fill="#191919"/>
</g>
<defs>
<linearGradient id="paint0_linear_207_9" x1="22" y1="17.5" x2="37" y2="55.5" gradientUnits="userSpaceOnUse">
<stop stop-color="#41BAFF"/>
<stop offset="1" stop-color="#1951C2"/>
</linearGradient>
<linearGradient id="paint1_linear_207_9" x1="41" y1="-0.5" x2="33" y2="25.5" gradientUnits="userSpaceOnUse">
<stop stop-color="#3DADF6"/>
<stop offset="1" stop-color="#1445B7"/>
</linearGradient>
<linearGradient id="paint2_linear_207_9" x1="0.5" y1="28" x2="30.5" y2="28" gradientUnits="userSpaceOnUse">
<stop stop-color="#FF790A"/>
<stop offset="0.293501" stop-color="#FE9B25"/>
<stop offset="0.880444" stop-color="#FFBF3F"/>
</linearGradient>
<clipPath id="clip0_207_9">
<rect width="220" height="56" fill="white"/>
</clipPath>
</defs>
</svg>
